<svg xmlns="http://www.w3.org/2000/svg" viewBox="0 0 180 145" fill="none">
  <defs>
    <linearGradient id="goldI" x1="0%" y1="0%" x2="100%" y2="100%">
      <stop offset="0%" stop-color="#D4A843"/>
      <stop offset="50%" stop-color="#C89B3C"/>
      <stop offset="100%" stop-color="#A07828"/>
    </linearGradient>
    <linearGradient id="silverI" x1="0%" y1="0%" x2="100%" y2="100%">
      <stop offset="0%" stop-color="#C8C8C8"/>
      <stop offset="50%" stop-color="#A0A0A0"/>
      <stop offset="100%" stop-color="#787878"/>
    </linearGradient>
    <linearGradient id="pageLeftI" x1="0%" y1="0%" x2="100%" y2="0%">
      <stop offset="0%" stop-color="#3A3A3A"/>
      <stop offset="100%" stop-color="#2A2A2A"/>
    </linearGradient>
    <linearGradient id="pageRightI" x1="0%" y1="0%" x2="100%" y2="0%">
      <stop offset="0%" stop-color="#2A2A2A"/>
      <stop offset="100%" stop-color="#3A3A3A"/>
    </linearGradient>
  </defs>

  <!-- Book base lines -->
  <path d="M10 118 Q90 128 170 118" stroke="url(#goldI)" stroke-width="4" fill="none" stroke-linecap="round"/>
  <path d="M12 124 Q90 134 168 124" stroke="url(#goldI)" stroke-width="2.5" fill="none" stroke-linecap="round" opacity="0.65"/>
  <path d="M14 130 Q90 140 166 130" stroke="url(#goldI)" stroke-width="1.5" fill="none" stroke-linecap="round" opacity="0.35"/>

  <!-- Left page -->
  <path d="M12 38 L12 118 Q51 110 88 118 L88 38 Q50 30 12 38 Z" fill="url(#pageLeftI)"/>
  <path d="M12 38 Q50 28 88 38" stroke="#444" stroke-width="1" fill="none"/>

  <!-- Right page -->
  <path d="M92 38 L92 118 Q129 110 168 118 L168 38 Q130 30 92 38 Z" fill="url(#pageRightI)"/>
  <path d="M92 38 Q130 28 168 38" stroke="#444" stroke-width="1" fill="none"/>

  <!-- Spine -->
  <line x1="90" y1="34" x2="90" y2="120" stroke="#1A1A1A" stroke-width="2.5"/>

  <!-- E letter -->
  <rect x="20" y="50" width="12" height="56" rx="2.5" fill="url(#silverI)"/>
  <rect x="20" y="50" width="42" height="12" rx="2.5" fill="url(#silverI)"/>
  <rect x="20" y="71" width="33" height="10" rx="2.5" fill="url(#silverI)"/>
  <rect x="20" y="94" width="42" height="12" rx="2.5" fill="url(#silverI)"/>

  <!-- G letter -->
  <path d="
    M164 62
    Q164 48 154 43
    Q140 37 126 43
    Q112 50 112 66
    Q112 84 124 92
    Q138 100 154 97
    Q166 93 168 83
    L168 69
    L144 69
    L144 79
    L156 79
    Q154 89 144 91
    Q130 95 120 85
    Q114 77 116 66
    Q118 53 130 49
    Q144 45 153 54
    Q159 59 159 65
    Z
  " fill="url(#goldI)"/>

  <!-- Pixel dots -->
  <rect x="148" y="10" width="11" height="11" rx="2"   fill="url(#goldI)" opacity="0.95"/>
  <rect x="162" y="6"  width="10" height="10" rx="1.8" fill="url(#goldI)" opacity="0.80"/>
  <rect x="175" y="3"  width="8"  height="8"  rx="1.5" fill="url(#goldI)" opacity="0.62"/>
  <rect x="152" y="24" width="10" height="10" rx="1.8" fill="url(#goldI)" opacity="0.85"/>
  <rect x="165" y="20" width="8"  height="8"  rx="1.5" fill="url(#goldI)" opacity="0.68"/>
  <rect x="177" y="16" width="7"  height="7"  rx="1.2" fill="url(#goldI)" opacity="0.50"/>
  <rect x="156" y="36" width="8"  height="8"  rx="1.5" fill="url(#goldI)" opacity="0.65"/>
  <rect x="168" y="32" width="7"  height="7"  rx="1.2" fill="url(#goldI)" opacity="0.50"/>
</svg>
