<svg xmlns="http://www.w3.org/2000/svg" viewBox="0 0 64 64" fill="none">
  <defs>
    <linearGradient id="gF" x1="0%" y1="0%" x2="100%" y2="100%">
      <stop offset="0%" stop-color="#D4A843"/>
      <stop offset="100%" stop-color="#A07828"/>
    </linearGradient>
    <linearGradient id="sF" x1="0%" y1="0%" x2="100%" y2="100%">
      <stop offset="0%" stop-color="#C0C0C0"/>
      <stop offset="100%" stop-color="#808080"/>
    </linearGradient>
  </defs>

  <!-- Rounded background -->
  <rect width="64" height="64" rx="12" fill="#1C1C1C"/>

  <!-- Book base lines -->
  <path d="M4 44 Q32 49 60 44" stroke="url(#gF)" stroke-width="2.5" fill="none" stroke-linecap="round"/>
  <path d="M5 48 Q32 53 59 48" stroke="url(#gF)" stroke-width="1.5" fill="none" stroke-linecap="round" opacity="0.6"/>

  <!-- Left page -->
  <path d="M5 16 L5 44 Q18.5 41 31 44 L31 16 Q18 13 5 16 Z" fill="#2E2E2E"/>

  <!-- Right page -->
  <path d="M33 16 L33 44 Q45.5 41 59 44 L59 16 Q46 13 33 16 Z" fill="#363636"/>

  <!-- Spine -->
  <line x1="32" y1="14" x2="32" y2="45" stroke="#1A1A1A" stroke-width="1.5"/>

  <!-- E letter (simplified for small size) -->
  <rect x="7.5"  y="20" width="4"  height="20" rx="1" fill="url(#sF)"/>
  <rect x="7.5"  y="20" width="14" height="4"  rx="1" fill="url(#sF)"/>
  <rect x="7.5"  y="28" width="11" height="3.5" rx="1" fill="url(#sF)"/>
  <rect x="7.5"  y="36" width="14" height="4"  rx="1" fill="url(#sF)"/>

  <!-- G letter (simplified) -->
  <path d="
    M57 23
    Q57 17 52 15
    Q45 12 39 16
    Q33 20 33 28
    Q33 36 38 40
    Q44 44 51 42
    Q57 40 58 35
    L58 28
    L48 28
    L48 32
    L53 32
    Q52 37 47 38
    Q41 39 37 34
    Q35 30 36 25
    Q37 19 43 17
    Q49 15 53 19
    Q56 21 56 24
    Z
  " fill="url(#gF)"/>

  <!-- Pixel dots (top right) -->
  <rect x="50" y="4"  width="5" height="5" rx="1"   fill="url(#gF)" opacity="0.95"/>
  <rect x="57" y="3"  width="4" height="4" rx="0.8" fill="url(#gF)" opacity="0.75"/>
  <rect x="52" y="10" width="4" height="4" rx="0.8" fill="url(#gF)" opacity="0.80"/>
  <rect x="58" y="9"  width="3" height="3" rx="0.6" fill="url(#gF)" opacity="0.60"/>
</svg>
